<svg xmlns="http://www.w3.org/2000/svg" viewBox="0 0 79.89 88.21"><title>logo</title><g id="Layer_2" data-name="Layer 2"><g id="Layer_1-2" data-name="Layer 1"><path d="M35.55,22.62c-.71-2-5.58,5.21-4.28,4.6,2.38-1.12,3-.54,5.35.58,3.94,1.89,7.46-2,8.2-4.94a9.47,9.47,0,0,0,.27-2.39c0-3.54-1.61-7.09-3.29-7.09-.94,0-3.57,2.06-9.48,5.61-.07,0-3.09,1.93-7.12,4.13a.83.83,0,0,0-.41.77,1.41,1.41,0,0,0,1.48,1.34,3,3,0,0,0,1.14-.29,97.53,97.53,0,0,0,11.77-6.82,7.86,7.86,0,0,1,.47,2.73A6.35,6.35,0,0,1,39,23.92C38.05,24.93,36.69,25.91,35.55,22.62Z"/><path d="M68.94,0C42.65,0,10.57,13.21,2.45,24.69A12,12,0,0,0,0,31.33c0,6.28,7.86,10,20.49,10,3.22,0,6.44-1.37,6.44-2.46,0-.43-.77-.79-2.83-.94-7-.43-10.7-3.24-10.7-7.29,0-2.16,1-4.62,3.09-7.29C24.1,13.57,44.71,5.34,64,5.05c-2.19,4-3.35,5.42-16.36,20.65C39.93,34.77,17.38,60.15,4.5,66.84a8,8,0,0,0-4.13,8.5c1.16,6.24,2.7,12.79,3.78,12.87,1.42.1,3.16-4.06,15.09-7.68a10.27,10.27,0,0,0,7-7.32C29.58,59.78,53.45,37,61,28.37,72.55,14.87,79.89,6.79,79.89,3,79.89.36,75.51,0,68.94,0Z"/></g></g></svg>